<mxfile host="Electron" modified="2024-04-11T08:43:46.571Z" agent="Mozilla/5.0 (X11; Linux x86_64) AppleWebKit/537.36 (KHTML, like Gecko) draw.io/22.1.18 Chrome/120.0.6099.199 Electron/28.1.2 Safari/537.36" etag="_c9DDBB2_cLnzdDys1VT" version="22.1.18" type="device">
  <diagram name="Страница — 1" id="Ej7XjD3VoD3UWixow2p9">
    <mxGraphModel dx="1434" dy="839" grid="1" gridSize="10" guides="1" tooltips="1" connect="1" arrows="1" fold="1" page="1" pageScale="1" pageWidth="827" pageHeight="1169" math="0" shadow="0">
      <root>
        <mxCell id="0" />
        <mxCell id="1" parent="0" />
        <mxCell id="yUWN5L0Y6oCtw9wINdQs-6" style="edgeStyle=orthogonalEdgeStyle;rounded=0;orthogonalLoop=1;jettySize=auto;html=1;exitX=0.5;exitY=1;exitDx=0;exitDy=0;entryX=0.5;entryY=0;entryDx=0;entryDy=0;" edge="1" parent="1" source="yUWN5L0Y6oCtw9wINdQs-1" target="yUWN5L0Y6oCtw9wINdQs-4">
          <mxGeometry relative="1" as="geometry" />
        </mxCell>
        <mxCell id="yUWN5L0Y6oCtw9wINdQs-8" style="edgeStyle=orthogonalEdgeStyle;rounded=0;orthogonalLoop=1;jettySize=auto;html=1;exitX=0.5;exitY=1;exitDx=0;exitDy=0;entryX=0.5;entryY=0;entryDx=0;entryDy=0;" edge="1" parent="1" source="yUWN5L0Y6oCtw9wINdQs-1" target="yUWN5L0Y6oCtw9wINdQs-7">
          <mxGeometry relative="1" as="geometry" />
        </mxCell>
        <mxCell id="yUWN5L0Y6oCtw9wINdQs-1" value="ИП Синицина, владелец салона &quot;ЮНОНА&quot;" style="rounded=0;whiteSpace=wrap;html=1;" vertex="1" parent="1">
          <mxGeometry x="400" y="40" width="120" height="60" as="geometry" />
        </mxCell>
        <mxCell id="yUWN5L0Y6oCtw9wINdQs-2" value="Стилисты-парикмахеры женские&lt;br&gt;(3 чел.)" style="rounded=0;whiteSpace=wrap;html=1;" vertex="1" parent="1">
          <mxGeometry x="240" y="140" width="120" height="60" as="geometry" />
        </mxCell>
        <mxCell id="yUWN5L0Y6oCtw9wINdQs-4" value="Стилисты-парикмахеры мужские&lt;br&gt;(3 чел.)" style="rounded=0;whiteSpace=wrap;html=1;" vertex="1" parent="1">
          <mxGeometry x="400" y="140" width="120" height="60" as="geometry" />
        </mxCell>
        <mxCell id="yUWN5L0Y6oCtw9wINdQs-5" style="edgeStyle=orthogonalEdgeStyle;rounded=0;orthogonalLoop=1;jettySize=auto;html=1;exitX=0.5;exitY=1;exitDx=0;exitDy=0;entryX=0.5;entryY=0;entryDx=0;entryDy=0;" edge="1" parent="1" source="yUWN5L0Y6oCtw9wINdQs-1" target="yUWN5L0Y6oCtw9wINdQs-2">
          <mxGeometry relative="1" as="geometry" />
        </mxCell>
        <mxCell id="yUWN5L0Y6oCtw9wINdQs-7" value="Уборщица&lt;br&gt;(1 чел.)" style="rounded=0;whiteSpace=wrap;html=1;" vertex="1" parent="1">
          <mxGeometry x="560" y="140" width="120" height="60" as="geometry" />
        </mxCell>
      </root>
    </mxGraphModel>
  </diagram>
</mxfile>
